<svg xmlns="http://www.w3.org/2000/svg" width="24" height="24" fill="currentColor"><path d="M12 4a1 1 0 0 1 1 1v1a1 1 0 0 1-2 0V5a1 1 0 0 1 1-1zm0 14a1 1 0 0 1 1 1v1a1 1 0 0 1-2 0v-1a1 1 0 0 1 1-1zm10-6a1 1 0 0 1-1 1h-1a1 1 0 0 1 0-2h1a1 1 0 0 1 1 1zM5 12a1 1 0 0 1-1 1H3a1 1 0 0 1 0-2h1a1 1 0 0 1 1 1zm14.071-7.071a1 1 0 0 1 0 1.414l-.707.707a1 1 0 0 1-1.414-1.414l.707-.707a1 1 0 0 1 1.414 0zM6.343 17.657a1 1 0 0 1 0 1.414l-.707.707a1 1 0 0 1-1.414-1.414l.707-.707a1 1 0 0 1 1.414 0zm12.728 1.414a1 1 0 0 1-1.414 0l-.707-.707a1 1 0 0 1 1.414-1.414l.707.707a1 1 0 0 1 0 1.414zM6.343 6.343a1 1 0 0 1-1.414 0l-.707-.707a1 1 0 0 1 1.414-1.414l.707.707a1 1 0 0 1 0 1.414zM12 8a4 4 0 1 1 0 8 4 4 0 0 1 0-8z"/></svg>